<svg width="22" height="23" viewBox="0 0 22 23" fill="none" xmlns="http://www.w3.org/2000/svg">
<path d="M19.1194 2.11084H3.32457C2.94375 2.11084 2.57852 2.26212 2.30924 2.5314C2.03995 2.80069 1.88867 3.16591 1.88867 3.54674V19.3416C1.88867 19.7224 2.03995 20.0877 2.30924 20.3569C2.57852 20.6262 2.94375 20.7775 3.32457 20.7775H19.1194C19.5003 20.7775 19.8655 20.6262 20.1348 20.3569C20.4041 20.0877 20.5553 19.7224 20.5553 19.3416V3.54674C20.5553 3.16591 20.4041 2.80069 20.1348 2.5314C19.8655 2.26212 19.5003 2.11084 19.1194 2.11084ZM19.1194 19.3416H3.32457V3.54674H19.1194V19.3416ZM8.35021 10.0083V15.7519C8.35021 15.9423 8.27457 16.1249 8.13993 16.2595C8.00529 16.3942 7.82267 16.4698 7.63226 16.4698C7.44185 16.4698 7.25924 16.3942 7.1246 16.2595C6.98995 16.1249 6.91431 15.9423 6.91431 15.7519V10.0083C6.91431 9.81786 6.98995 9.63525 7.1246 9.50061C7.25924 9.36597 7.44185 9.29033 7.63226 9.29033C7.82267 9.29033 8.00529 9.36597 8.13993 9.50061C8.27457 9.63525 8.35021 9.81786 8.35021 10.0083ZM16.2476 12.5211V15.7519C16.2476 15.9423 16.172 16.1249 16.0374 16.2595C15.9027 16.3942 15.7201 16.4698 15.5297 16.4698C15.3393 16.4698 15.1567 16.3942 15.022 16.2595C14.8874 16.1249 14.8118 15.9423 14.8118 15.7519V12.5211C14.8118 12.0451 14.6226 11.5885 14.286 11.2519C13.9494 10.9153 13.4929 10.7262 13.0169 10.7262C12.5408 10.7262 12.0843 10.9153 11.7477 11.2519C11.4111 11.5885 11.222 12.0451 11.222 12.5211V15.7519C11.222 15.9423 11.1464 16.1249 11.0117 16.2595C10.8771 16.3942 10.6945 16.4698 10.5041 16.4698C10.3136 16.4698 10.131 16.3942 9.99639 16.2595C9.86175 16.1249 9.78611 15.9423 9.78611 15.7519V10.0083C9.787 9.83242 9.8524 9.66301 9.96992 9.53217C10.0874 9.40134 10.2489 9.31818 10.4236 9.29848C10.5984 9.27878 10.7743 9.32391 10.918 9.4253C11.0617 9.52669 11.1631 9.67729 11.2032 9.84853C11.6888 9.51906 12.2551 9.32811 12.8411 9.29618C13.4271 9.26425 14.0108 9.39255 14.5294 9.66731C15.048 9.94206 15.4819 10.3529 15.7847 10.8557C16.0874 11.3585 16.2475 11.9342 16.2476 12.5211ZM8.70919 7.49546C8.70919 7.70845 8.64603 7.91666 8.52769 8.09376C8.40936 8.27086 8.24116 8.40889 8.04438 8.4904C7.8476 8.57191 7.63107 8.59324 7.42216 8.55169C7.21326 8.51013 7.02137 8.40757 6.87076 8.25696C6.72015 8.10635 6.61759 7.91446 6.57603 7.70555C6.53448 7.49665 6.55581 7.28012 6.63731 7.08334C6.71882 6.88655 6.85686 6.71836 7.03396 6.60003C7.21106 6.48169 7.41927 6.41853 7.63226 6.41853C7.91788 6.41853 8.1918 6.53199 8.39376 6.73396C8.59572 6.93592 8.70919 7.20984 8.70919 7.49546Z" fill="#A3AED0"/>
</svg>
