<svg width="106" height="31" viewBox="0 0 106 31" fill="none" xmlns="http://www.w3.org/2000/svg">
<path d="M5.726 21.7507V22.5691H3.13V24.3731H5.154V25.1915H3.13V27.8667H2.1268V21.7507H5.726ZM7.1661 22.3755C6.98424 22.3755 6.8317 22.3139 6.7085 22.1907C6.5853 22.0675 6.5237 21.915 6.5237 21.7331C6.5237 21.5512 6.5853 21.3987 6.7085 21.2755C6.8317 21.1523 6.98424 21.0907 7.1661 21.0907C7.3421 21.0907 7.4917 21.1523 7.6149 21.2755C7.7381 21.3987 7.7997 21.5512 7.7997 21.7331C7.7997 21.915 7.7381 22.0675 7.6149 22.1907C7.4917 22.3139 7.3421 22.3755 7.1661 22.3755ZM7.6589 23.0179V27.8667H6.6557V23.0179H7.6589ZM11.4224 22.9387C11.8038 22.9387 12.144 23.0179 12.4432 23.1763C12.7483 23.3347 12.9859 23.5694 13.156 23.8803C13.3262 24.1912 13.4112 24.5667 13.4112 25.0067V27.8667H12.4168V25.1563C12.4168 24.7222 12.3083 24.3907 12.0912 24.1619C11.8742 23.9272 11.5779 23.8099 11.2024 23.8099C10.8269 23.8099 10.5277 23.9272 10.3048 24.1619C10.0877 24.3907 9.97922 24.7222 9.97922 25.1563V27.8667H8.97602V23.0179H9.97922V23.5723C10.1435 23.3728 10.3517 23.2174 10.604 23.1059C10.8622 22.9944 11.135 22.9387 11.4224 22.9387ZM14.3565 25.4203C14.3565 24.9334 14.4562 24.5022 14.6557 24.1267C14.861 23.7512 15.1367 23.4608 15.4829 23.2555C15.8349 23.0443 16.225 22.9387 16.6533 22.9387C16.9701 22.9387 17.281 23.0091 17.5861 23.1499C17.897 23.2848 18.1434 23.4667 18.3253 23.6955V21.3547H19.3373V27.8667H18.3253V27.1363C18.161 27.371 17.9322 27.5646 17.6389 27.7171C17.3514 27.8696 17.0199 27.9459 16.6445 27.9459C16.2221 27.9459 15.8349 27.8403 15.4829 27.6291C15.1367 27.412 14.861 27.1128 14.6557 26.7315C14.4562 26.3443 14.3565 25.9072 14.3565 25.4203ZM18.3253 25.4379C18.3253 25.1035 18.2549 24.8131 18.1141 24.5667C17.9791 24.3203 17.8002 24.1326 17.5773 24.0035C17.3543 23.8744 17.1138 23.8099 16.8557 23.8099C16.5975 23.8099 16.357 23.8744 16.1341 24.0035C15.9111 24.1267 15.7293 24.3115 15.5885 24.5579C15.4535 24.7984 15.3861 25.0859 15.3861 25.4203C15.3861 25.7547 15.4535 26.048 15.5885 26.3003C15.7293 26.5526 15.9111 26.7462 16.1341 26.8811C16.3629 27.0102 16.6034 27.0747 16.8557 27.0747C17.1138 27.0747 17.3543 27.0102 17.5773 26.8811C17.8002 26.752 17.9791 26.5643 18.1141 26.3179C18.2549 26.0656 18.3253 25.7723 18.3253 25.4379ZM21.1653 22.3755C20.9835 22.3755 20.8309 22.3139 20.7077 22.1907C20.5845 22.0675 20.5229 21.915 20.5229 21.7331C20.5229 21.5512 20.5845 21.3987 20.7077 21.2755C20.8309 21.1523 20.9835 21.0907 21.1653 21.0907C21.3413 21.0907 21.4909 21.1523 21.6141 21.2755C21.7373 21.3987 21.7989 21.5512 21.7989 21.7331C21.7989 21.915 21.7373 22.0675 21.6141 22.1907C21.4909 22.3139 21.3413 22.3755 21.1653 22.3755ZM21.6581 23.0179V27.8667H20.6549V23.0179H21.6581ZM25.4216 22.9387C25.803 22.9387 26.1432 23.0179 26.4424 23.1763C26.7475 23.3347 26.9851 23.5694 27.1552 23.8803C27.3254 24.1912 27.4104 24.5667 27.4104 25.0067V27.8667H26.416V25.1563C26.416 24.7222 26.3075 24.3907 26.0904 24.1619C25.8734 23.9272 25.5771 23.8099 25.2016 23.8099C24.8262 23.8099 24.527 23.9272 24.304 24.1619C24.087 24.3907 23.9784 24.7222 23.9784 25.1563V27.8667H22.9752V23.0179H23.9784V23.5723C24.1427 23.3728 24.351 23.2174 24.6032 23.1059C24.8614 22.9944 25.1342 22.9387 25.4216 22.9387ZM30.6437 22.9387C31.0192 22.9387 31.3506 23.015 31.6381 23.1675C31.9314 23.3142 32.1602 23.499 32.3245 23.7219V23.0179H33.3365V27.9459C33.3365 28.3918 33.2426 28.7878 33.0549 29.1339C32.8672 29.4859 32.5944 29.7616 32.2365 29.9611C31.8845 30.1606 31.4621 30.2603 30.9693 30.2603C30.3122 30.2603 29.7666 30.1048 29.3325 29.7939C28.8983 29.4888 28.6519 29.0723 28.5933 28.5443H29.5877C29.6639 28.7966 29.8253 28.999 30.0717 29.1515C30.3239 29.3099 30.6231 29.3891 30.9693 29.3891C31.3741 29.3891 31.6997 29.2659 31.9461 29.0195C32.1984 28.7731 32.3245 28.4152 32.3245 27.9459V27.1363C32.1544 27.3651 31.9226 27.5587 31.6293 27.7171C31.3418 27.8696 31.0133 27.9459 30.6437 27.9459C30.2213 27.9459 29.8341 27.8403 29.4821 27.6291C29.1359 27.412 28.8602 27.1128 28.6549 26.7315C28.4554 26.3443 28.3557 25.9072 28.3557 25.4203C28.3557 24.9334 28.4554 24.5022 28.6549 24.1267C28.8602 23.7512 29.1359 23.4608 29.4821 23.2555C29.8341 23.0443 30.2213 22.9387 30.6437 22.9387ZM32.3245 25.4379C32.3245 25.1035 32.2541 24.8131 32.1133 24.5667C31.9784 24.3203 31.7994 24.1326 31.5765 24.0035C31.3535 23.8744 31.113 23.8099 30.8549 23.8099C30.5967 23.8099 30.3562 23.8744 30.1333 24.0035C29.9103 24.1267 29.7285 24.3115 29.5877 24.5579C29.4527 24.7984 29.3853 25.0859 29.3853 25.4203C29.3853 25.7547 29.4527 26.048 29.5877 26.3003C29.7285 26.5526 29.9103 26.7462 30.1333 26.8811C30.3621 27.0102 30.6026 27.0747 30.8549 27.0747C31.113 27.0747 31.3535 27.0102 31.5765 26.8811C31.7994 26.752 31.9784 26.5643 32.1133 26.3179C32.2541 26.0656 32.3245 25.7723 32.3245 25.4379ZM37.4505 22.3755C37.2686 22.3755 37.1161 22.3139 36.9929 22.1907C36.8697 22.0675 36.8081 21.915 36.8081 21.7331C36.8081 21.5512 36.8697 21.3987 36.9929 21.2755C37.1161 21.1523 37.2686 21.0907 37.4505 21.0907C37.6265 21.0907 37.7761 21.1523 37.8993 21.2755C38.0225 21.3987 38.0841 21.5512 38.0841 21.7331C38.0841 21.915 38.0225 22.0675 37.8993 22.1907C37.7761 22.3139 37.6265 22.3755 37.4505 22.3755ZM37.9433 28.8171C37.9433 29.2923 37.823 29.6355 37.5825 29.8467C37.3478 30.0638 37.0046 30.1723 36.5529 30.1723H36.0337V29.3275H36.3769C36.5822 29.3275 36.7259 29.2864 36.8081 29.2043C36.8961 29.128 36.9401 28.999 36.9401 28.8171V23.0179H37.9433V28.8171ZM41.3636 27.9459C40.906 27.9459 40.4924 27.8432 40.1228 27.6379C39.7532 27.4267 39.4628 27.1334 39.2516 26.7579C39.0404 26.3766 38.9348 25.9366 38.9348 25.4379C38.9348 24.9451 39.0433 24.508 39.2604 24.1267C39.4775 23.7454 39.7737 23.452 40.1492 23.2467C40.5247 23.0414 40.9441 22.9387 41.4076 22.9387C41.8711 22.9387 42.2905 23.0414 42.666 23.2467C43.0415 23.452 43.3377 23.7454 43.5548 24.1267C43.7719 24.508 43.8804 24.9451 43.8804 25.4379C43.8804 25.9307 43.7689 26.3678 43.546 26.7491C43.3231 27.1304 43.018 27.4267 42.6308 27.6379C42.2495 27.8432 41.8271 27.9459 41.3636 27.9459ZM41.3636 27.0747C41.6217 27.0747 41.8623 27.0131 42.0852 26.8899C42.314 26.7667 42.4988 26.5819 42.6396 26.3355C42.7804 26.0891 42.8508 25.7899 42.8508 25.4379C42.8508 25.0859 42.7833 24.7896 42.6484 24.5491C42.5135 24.3027 42.3345 24.1179 42.1116 23.9947C41.8887 23.8715 41.6481 23.8099 41.39 23.8099C41.1319 23.8099 40.8913 23.8715 40.6684 23.9947C40.4513 24.1179 40.2783 24.3027 40.1492 24.5491C40.0201 24.7896 39.9556 25.0859 39.9556 25.4379C39.9556 25.96 40.0876 26.3648 40.3516 26.6523C40.6215 26.9339 40.9588 27.0747 41.3636 27.0747ZM45.8753 23.7395C46.0454 23.5048 46.2772 23.3142 46.5705 23.1675C46.8697 23.015 47.2012 22.9387 47.5649 22.9387C47.9932 22.9387 48.3804 23.0414 48.7265 23.2467C49.0727 23.452 49.3455 23.7454 49.5449 24.1267C49.7444 24.5022 49.8441 24.9334 49.8441 25.4203C49.8441 25.9072 49.7444 26.3443 49.5449 26.7315C49.3455 27.1128 49.0697 27.412 48.7177 27.6291C48.3716 27.8403 47.9873 27.9459 47.5649 27.9459C47.1895 27.9459 46.855 27.8726 46.5617 27.7259C46.2742 27.5792 46.0454 27.3915 45.8753 27.1627V27.8667H44.8721V21.3547H45.8753V23.7395ZM48.8233 25.4203C48.8233 25.0859 48.7529 24.7984 48.6121 24.5579C48.4772 24.3115 48.2953 24.1267 48.0665 24.0035C47.8436 23.8744 47.6031 23.8099 47.3449 23.8099C47.0927 23.8099 46.8521 23.8744 46.6233 24.0035C46.4004 24.1326 46.2185 24.3203 46.0777 24.5667C45.9428 24.8131 45.8753 25.1035 45.8753 25.4379C45.8753 25.7723 45.9428 26.0656 46.0777 26.3179C46.2185 26.5643 46.4004 26.752 46.6233 26.8811C46.8521 27.0102 47.0927 27.0747 47.3449 27.0747C47.6031 27.0747 47.8436 27.0102 48.0665 26.8811C48.2953 26.7462 48.4772 26.5526 48.6121 26.3003C48.7529 26.048 48.8233 25.7547 48.8233 25.4203ZM58.9917 22.9387C59.3731 22.9387 59.7133 23.0179 60.0125 23.1763C60.3176 23.3347 60.5552 23.5694 60.7253 23.8803C60.9013 24.1912 60.9893 24.5667 60.9893 25.0067V27.8667H59.9949V25.1563C59.9949 24.7222 59.8864 24.3907 59.6693 24.1619C59.4523 23.9272 59.156 23.8099 58.7805 23.8099C58.4051 23.8099 58.1059 23.9272 57.8829 24.1619C57.6659 24.3907 57.5573 24.7222 57.5573 25.1563V27.8667H56.5629V25.1563C56.5629 24.7222 56.4544 24.3907 56.2373 24.1619C56.0203 23.9272 55.724 23.8099 55.3485 23.8099C54.973 23.8099 54.6738 23.9272 54.4509 24.1619C54.2338 24.3907 54.1253 24.7222 54.1253 25.1563V27.8667H53.1221V23.0179H54.1253V23.5723C54.2896 23.3728 54.4978 23.2174 54.7501 23.1059C55.0024 22.9944 55.2723 22.9387 55.5597 22.9387C55.9469 22.9387 56.2931 23.0208 56.5981 23.1851C56.9032 23.3494 57.1379 23.587 57.3021 23.8979C57.4488 23.6046 57.6776 23.3728 57.9885 23.2027C58.2995 23.0267 58.6339 22.9387 58.9917 22.9387ZM61.9315 25.4203C61.9315 24.9334 62.0312 24.5022 62.2307 24.1267C62.436 23.7512 62.7117 23.4608 63.0579 23.2555C63.4099 23.0443 63.7971 22.9387 64.2195 22.9387C64.6008 22.9387 64.9323 23.015 65.2139 23.1675C65.5013 23.3142 65.7301 23.499 65.9003 23.7219V23.0179H66.9123V27.8667H65.9003V27.1451C65.7301 27.3739 65.4984 27.5646 65.2051 27.7171C64.9117 27.8696 64.5773 27.9459 64.2019 27.9459C63.7853 27.9459 63.404 27.8403 63.0579 27.6291C62.7117 27.412 62.436 27.1128 62.2307 26.7315C62.0312 26.3443 61.9315 25.9072 61.9315 25.4203ZM65.9003 25.4379C65.9003 25.1035 65.8299 24.8131 65.6891 24.5667C65.5541 24.3203 65.3752 24.1326 65.1523 24.0035C64.9293 23.8744 64.6888 23.8099 64.4307 23.8099C64.1725 23.8099 63.932 23.8744 63.7091 24.0035C63.4861 24.1267 63.3043 24.3115 63.1635 24.5579C63.0285 24.7984 62.9611 25.0859 62.9611 25.4203C62.9611 25.7547 63.0285 26.048 63.1635 26.3003C63.3043 26.5526 63.4861 26.7462 63.7091 26.8811C63.9379 27.0102 64.1784 27.0747 64.4307 27.0747C64.6888 27.0747 64.9293 27.0102 65.1523 26.8811C65.3752 26.752 65.5541 26.5643 65.6891 26.3179C65.8299 26.0656 65.9003 25.7723 65.9003 25.4379ZM67.8955 25.4203C67.8955 24.9334 67.9953 24.5022 68.1947 24.1267C68.4001 23.7512 68.6758 23.4608 69.0219 23.2555C69.3739 23.0443 69.7641 22.9387 70.1923 22.9387C70.5091 22.9387 70.8201 23.0091 71.1251 23.1499C71.4361 23.2848 71.6825 23.4667 71.8643 23.6955V21.3547H72.8763V27.8667H71.8643V27.1363C71.7001 27.371 71.4713 27.5646 71.1779 27.7171C70.8905 27.8696 70.559 27.9459 70.1835 27.9459C69.7611 27.9459 69.3739 27.8403 69.0219 27.6291C68.6758 27.412 68.4001 27.1128 68.1947 26.7315C67.9953 26.3443 67.8955 25.9072 67.8955 25.4203ZM71.8643 25.4379C71.8643 25.1035 71.7939 24.8131 71.6531 24.5667C71.5182 24.3203 71.3393 24.1326 71.1163 24.0035C70.8934 23.8744 70.6529 23.8099 70.3947 23.8099C70.1366 23.8099 69.8961 23.8744 69.6731 24.0035C69.4502 24.1267 69.2683 24.3115 69.1275 24.5579C68.9926 24.7984 68.9251 25.0859 68.9251 25.4203C68.9251 25.7547 68.9926 26.048 69.1275 26.3003C69.2683 26.5526 69.4502 26.7462 69.6731 26.8811C69.9019 27.0102 70.1425 27.0747 70.3947 27.0747C70.6529 27.0747 70.8934 27.0102 71.1163 26.8811C71.3393 26.752 71.5182 26.5643 71.6531 26.3179C71.7939 26.0656 71.8643 25.7723 71.8643 25.4379ZM78.638 25.3235C78.638 25.5054 78.6263 25.6696 78.6028 25.8163H74.898C74.9273 26.2035 75.0711 26.5144 75.3292 26.7491C75.5873 26.9838 75.9041 27.1011 76.2796 27.1011C76.8193 27.1011 77.2007 26.8752 77.4236 26.4235H78.506C78.3593 26.8694 78.0924 27.236 77.7052 27.5235C77.3239 27.8051 76.8487 27.9459 76.2796 27.9459C75.8161 27.9459 75.3996 27.8432 75.03 27.6379C74.6663 27.4267 74.3788 27.1334 74.1676 26.7579C73.9623 26.3766 73.8596 25.9366 73.8596 25.4379C73.8596 24.9392 73.9593 24.5022 74.1588 24.1267C74.3641 23.7454 74.6487 23.452 75.0124 23.2467C75.382 23.0414 75.8044 22.9387 76.2796 22.9387C76.7372 22.9387 77.1449 23.0384 77.5028 23.2379C77.8607 23.4374 78.1393 23.719 78.3388 24.0827C78.5383 24.4406 78.638 24.8542 78.638 25.3235ZM77.5908 25.0067C77.5849 24.6371 77.4529 24.3408 77.1948 24.1179C76.9367 23.895 76.6169 23.7835 76.2356 23.7835C75.8895 23.7835 75.5932 23.895 75.3468 24.1179C75.1004 24.335 74.9537 24.6312 74.9068 25.0067H77.5908ZM86.3552 25.3235C86.3552 25.5054 86.3435 25.6696 86.32 25.8163H82.6152C82.6445 26.2035 82.7882 26.5144 83.0464 26.7491C83.3045 26.9838 83.6213 27.1011 83.9968 27.1011C84.5365 27.1011 84.9178 26.8752 85.1408 26.4235H86.2232C86.0765 26.8694 85.8096 27.236 85.4224 27.5235C85.041 27.8051 84.5658 27.9459 83.9968 27.9459C83.5333 27.9459 83.1168 27.8432 82.7472 27.6379C82.3834 27.4267 82.096 27.1334 81.8848 26.7579C81.6794 26.3766 81.5768 25.9366 81.5768 25.4379C81.5768 24.9392 81.6765 24.5022 81.876 24.1267C82.0813 23.7454 82.3658 23.452 82.7296 23.2467C83.0992 23.0414 83.5216 22.9387 83.9968 22.9387C84.4544 22.9387 84.8621 23.0384 85.22 23.2379C85.5779 23.4374 85.8565 23.719 86.056 24.0827C86.2555 24.4406 86.3552 24.8542 86.3552 25.3235ZM85.308 25.0067C85.3021 24.6371 85.1701 24.3408 84.912 24.1179C84.6538 23.895 84.3341 23.7835 83.9528 23.7835C83.6066 23.7835 83.3104 23.895 83.064 24.1179C82.8176 24.335 82.6709 24.6312 82.624 25.0067H85.308ZM87.008 25.4203C87.008 24.9334 87.1078 24.5022 87.3072 24.1267C87.5126 23.7512 87.7883 23.4608 88.1344 23.2555C88.4864 23.0443 88.8736 22.9387 89.296 22.9387C89.6774 22.9387 90.0088 23.015 90.2904 23.1675C90.5779 23.3142 90.8067 23.499 90.9768 23.7219V23.0179H91.9888V27.8667H90.9768V27.1451C90.8067 27.3739 90.575 27.5646 90.2816 27.7171C89.9883 27.8696 89.6539 27.9459 89.2784 27.9459C88.8619 27.9459 88.4806 27.8403 88.1344 27.6291C87.7883 27.412 87.5126 27.1128 87.3072 26.7315C87.1078 26.3443 87.008 25.9072 87.008 25.4203ZM90.9768 25.4379C90.9768 25.1035 90.9064 24.8131 90.7656 24.5667C90.6307 24.3203 90.4518 24.1326 90.2288 24.0035C90.0059 23.8744 89.7654 23.8099 89.5072 23.8099C89.2491 23.8099 89.0086 23.8744 88.7856 24.0035C88.5627 24.1267 88.3808 24.3115 88.24 24.5579C88.1051 24.7984 88.0376 25.0859 88.0376 25.4203C88.0376 25.7547 88.1051 26.048 88.24 26.3003C88.3808 26.5526 88.5627 26.7462 88.7856 26.8811C89.0144 27.0102 89.255 27.0747 89.5072 27.0747C89.7654 27.0747 90.0059 27.0102 90.2288 26.8811C90.4518 26.752 90.6307 26.5643 90.7656 26.3179C90.9064 26.0656 90.9768 25.7723 90.9768 25.4379ZM95.0665 27.9459C94.6852 27.9459 94.342 27.8784 94.0369 27.7435C93.7377 27.6027 93.5001 27.415 93.3241 27.1803C93.1481 26.9398 93.0542 26.6728 93.0425 26.3795H94.0809C94.0985 26.5848 94.1953 26.7579 94.3713 26.8987C94.5532 27.0336 94.779 27.1011 95.0489 27.1011C95.3305 27.1011 95.5476 27.0483 95.7001 26.9427C95.8585 26.8312 95.9377 26.6904 95.9377 26.5203C95.9377 26.3384 95.8497 26.2035 95.6737 26.1155C95.5036 26.0275 95.2308 25.9307 94.8553 25.8251C94.4916 25.7254 94.1953 25.6286 93.9665 25.5347C93.7377 25.4408 93.5382 25.2971 93.3681 25.1035C93.2038 24.9099 93.1217 24.6547 93.1217 24.3379C93.1217 24.0798 93.198 23.8451 93.3505 23.6339C93.503 23.4168 93.7201 23.2467 94.0017 23.1235C94.2892 23.0003 94.6177 22.9387 94.9873 22.9387C95.5388 22.9387 95.9817 23.0795 96.3161 23.3611C96.6564 23.6368 96.8382 24.0152 96.8617 24.4963H95.8585C95.8409 24.2792 95.7529 24.1062 95.5945 23.9771C95.4361 23.848 95.222 23.7835 94.9521 23.7835C94.6881 23.7835 94.4857 23.8334 94.3449 23.9331C94.2041 24.0328 94.1337 24.1648 94.1337 24.3291C94.1337 24.4582 94.1806 24.5667 94.2745 24.6547C94.3684 24.7427 94.4828 24.8131 94.6177 24.8659C94.7526 24.9128 94.9521 24.9744 95.2161 25.0507C95.5681 25.1446 95.8556 25.2414 96.0785 25.3411C96.3073 25.435 96.5038 25.5758 96.6681 25.7635C96.8324 25.9512 96.9174 26.2006 96.9233 26.5115C96.9233 26.7872 96.847 27.0336 96.6945 27.2507C96.542 27.4678 96.3249 27.6379 96.0433 27.7611C95.7676 27.8843 95.442 27.9459 95.0665 27.9459ZM102.372 23.0179L99.3977 30.1459H98.3593L99.3449 27.7875L97.4353 23.0179H98.5529L99.9169 26.7139L101.334 23.0179H102.372ZM104.388 21.7507L104.273 26.0187H103.437L103.323 21.7507H104.388ZM103.886 27.9283C103.704 27.9283 103.552 27.8667 103.428 27.7435C103.305 27.6203 103.244 27.4678 103.244 27.2859C103.244 27.104 103.305 26.9515 103.428 26.8283C103.552 26.7051 103.704 26.6435 103.886 26.6435C104.062 26.6435 104.212 26.7051 104.335 26.8283C104.458 26.9515 104.52 27.104 104.52 27.2859C104.52 27.4678 104.458 27.6203 104.335 27.7435C104.212 27.8667 104.062 27.9283 103.886 27.9283Z" fill="#4318FF"/>
<path d="M6.02507 16.1999C5.04631 16.1999 4.16924 16.041 3.39387 15.7232C2.61849 15.4054 1.99564 14.9351 1.52533 14.3123C1.06773 13.6894 0.826222 12.9395 0.8008 12.0624H4.27093C4.32178 12.5581 4.49338 12.9395 4.78573 13.2064C5.07809 13.4606 5.45942 13.5877 5.92973 13.5877C6.41276 13.5877 6.79409 13.4797 7.07373 13.2636C7.35338 13.0348 7.4932 12.7234 7.4932 12.3293C7.4932 11.9989 7.3788 11.7256 7.15 11.5095C6.93391 11.2934 6.66062 11.1154 6.33013 10.9756C6.01236 10.8358 5.55476 10.6769 4.95733 10.4989C4.09298 10.232 3.38751 9.96507 2.84093 9.69814C2.29436 9.43121 1.82404 9.03716 1.43 8.51601C1.03596 7.99485 0.838933 7.31481 0.838933 6.47587C0.838933 5.23018 1.29018 4.25778 2.19267 3.55867C3.09516 2.84685 4.27093 2.49094 5.72 2.49094C7.19449 2.49094 8.38298 2.84685 9.28547 3.55867C10.188 4.25778 10.671 5.23654 10.7345 6.49494H7.2072C7.18178 6.06276 7.02289 5.72592 6.73053 5.48441C6.43818 5.23018 6.0632 5.10307 5.6056 5.10307C5.21156 5.10307 4.89378 5.21112 4.65227 5.42721C4.41076 5.63058 4.29 5.92929 4.29 6.32334C4.29 6.75552 4.49338 7.09236 4.90013 7.33387C5.30689 7.57538 5.94244 7.83596 6.8068 8.11561C7.67116 8.40796 8.37027 8.68761 8.90413 8.95454C9.45071 9.22147 9.92102 9.60916 10.3151 10.1176C10.7091 10.6261 10.9061 11.2807 10.9061 12.0815C10.9061 12.8441 10.7091 13.5369 10.3151 14.1597C9.93373 14.7826 9.37445 15.2783 8.6372 15.6469C7.89996 16.0156 7.02925 16.1999 6.02507 16.1999ZM12.2643 10.7277C12.2643 9.63458 12.4677 8.67489 12.8745 7.84867C13.2939 7.02245 13.8596 6.38689 14.5714 5.94201C15.2832 5.49712 16.0777 5.27467 16.9547 5.27467C17.7047 5.27467 18.3593 5.4272 18.9186 5.73227C19.4906 6.03734 19.9291 6.43774 20.2342 6.93347V5.42721H23.4946V16.0664H20.2342V14.5601C19.9164 15.0559 19.4715 15.4563 18.8995 15.7613C18.3402 16.0664 17.6856 16.2189 16.9357 16.2189C16.0713 16.2189 15.2832 15.9965 14.5714 15.5516C13.8596 15.094 13.2939 14.4521 12.8745 13.6259C12.4677 12.7869 12.2643 11.8209 12.2643 10.7277ZM20.2342 10.7468C20.2342 9.93329 20.0054 9.29138 19.5478 8.82107C19.1029 8.35076 18.5563 8.11561 17.9081 8.11561C17.2598 8.11561 16.7069 8.35076 16.2493 8.82107C15.8044 9.27867 15.5819 9.91423 15.5819 10.7277C15.5819 11.5413 15.8044 12.1895 16.2493 12.6725C16.7069 13.1429 17.2598 13.378 17.9081 13.378C18.5563 13.378 19.1029 13.1429 19.5478 12.6725C20.0054 12.2022 20.2342 11.5603 20.2342 10.7468ZM29.1138 1.95707V16.0664H25.8534V1.95707H29.1138ZM30.8283 10.7277C30.8283 9.63458 31.0316 8.67489 31.4384 7.84867C31.8579 7.02245 32.4235 6.38689 33.1353 5.94201C33.8472 5.49712 34.6416 5.27467 35.5187 5.27467C36.2686 5.27467 36.9232 5.4272 37.4825 5.73227C38.0545 6.03734 38.4931 6.43774 38.7981 6.93347V5.42721H42.0585V16.0664H38.7981V14.5601C38.4804 15.0559 38.0355 15.4563 37.4635 15.7613C36.9042 16.0664 36.2496 16.2189 35.4996 16.2189C34.6352 16.2189 33.8472 15.9965 33.1353 15.5516C32.4235 15.094 31.8579 14.4521 31.4384 13.6259C31.0316 12.7869 30.8283 11.8209 30.8283 10.7277ZM38.7981 10.7468C38.7981 9.93329 38.5693 9.29138 38.1117 8.82107C37.6668 8.35076 37.1203 8.11561 36.472 8.11561C35.8237 8.11561 35.2708 8.35076 34.8132 8.82107C34.3683 9.27867 34.1459 9.91423 34.1459 10.7277C34.1459 11.5413 34.3683 12.1895 34.8132 12.6725C35.2708 13.1429 35.8237 13.378 36.472 13.378C37.1203 13.378 37.6668 13.1429 38.1117 12.6725C38.5693 12.2022 38.7981 11.5603 38.7981 10.7468ZM50.9572 5.31281C52.1774 5.31281 53.1562 5.71956 53.8934 6.53307C54.6307 7.33387 54.9993 8.43974 54.9993 9.85067V16.0664H51.758V10.2892C51.758 9.57738 51.5737 9.02445 51.205 8.63041C50.8364 8.23636 50.3407 8.03934 49.7178 8.03934C49.095 8.03934 48.5993 8.23636 48.2306 8.63041C47.862 9.02445 47.6777 9.57738 47.6777 10.2892V16.0664H44.4173V1.95707H47.6777V6.85721C48.0082 6.38689 48.4594 6.01192 49.0314 5.73227C49.6034 5.45263 50.2453 5.31281 50.9572 5.31281ZM63.7667 16.0664L60.5254 11.6048V16.0664H57.265V1.95707H60.5254V9.75534L63.7476 5.42721H67.7707L63.3472 10.7659L67.8088 16.0664H63.7667ZM68.403 10.7277C68.403 9.63458 68.6064 8.67489 69.0131 7.84867C69.4326 7.02245 69.9983 6.38689 70.7101 5.94201C71.4219 5.49712 72.2163 5.27467 73.0934 5.27467C73.8434 5.27467 74.498 5.4272 75.0573 5.73227C75.6293 6.03734 76.0678 6.43774 76.3729 6.93347V5.42721H79.6333V16.0664H76.3729V14.5601C76.0551 15.0559 75.6102 15.4563 75.0382 15.7613C74.4789 16.0664 73.8243 16.2189 73.0743 16.2189C72.21 16.2189 71.4219 15.9965 70.7101 15.5516C69.9983 15.094 69.4326 14.4521 69.0131 13.6259C68.6064 12.7869 68.403 11.8209 68.403 10.7277ZM76.3729 10.7468C76.3729 9.93329 76.1441 9.29138 75.6865 8.82107C75.2416 8.35076 74.695 8.11561 74.0467 8.11561C73.3985 8.11561 72.8455 8.35076 72.3879 8.82107C71.9431 9.27867 71.7206 9.91423 71.7206 10.7277C71.7206 11.5413 71.9431 12.1895 72.3879 12.6725C72.8455 13.1429 73.3985 13.378 74.0467 13.378C74.695 13.378 75.2416 13.1429 75.6865 12.6725C76.1441 12.2022 76.3729 11.5603 76.3729 10.7468ZM85.2524 7.20041C85.6338 6.61569 86.1104 6.15809 86.6824 5.82761C87.2544 5.48441 87.89 5.31281 88.5891 5.31281V8.76387H87.693C86.8795 8.76387 86.2693 8.94183 85.8626 9.29774C85.4558 9.64094 85.2524 10.2511 85.2524 11.1281V16.0664H81.992V5.42721H85.2524V7.20041ZM96.0772 13.3017V16.0664H94.4184C93.2363 16.0664 92.3147 15.7804 91.6538 15.2084C90.9928 14.6237 90.6623 13.6767 90.6623 12.3675V8.13467H89.3658V5.42721H90.6623V2.83414H93.9227V5.42721H96.0582V8.13467H93.9227V12.4056C93.9227 12.7234 93.999 12.9522 94.1515 13.092C94.304 13.2318 94.5583 13.3017 94.9142 13.3017H96.0772Z" fill="#4318FF"/>
</svg>
