<svg width="32" height="32" viewBox="0 0 32 32" fill="none" xmlns="http://www.w3.org/2000/svg">
<path d="M12.0326 4.62513C11.9676 4.36907 12.0066 4.0977 12.141 3.87028C12.2755 3.64287 12.4944 3.47789 12.7501 3.41138C14.8819 2.86157 17.1183 2.86157 19.2501 3.41138C19.4862 3.47183 19.6921 3.61644 19.8291 3.81803C19.9661 4.01962 20.0248 4.26431 19.9941 4.5061C19.9634 4.7479 19.8454 4.97016 19.6624 5.1311C19.4793 5.29205 19.2438 5.38061 19.0001 5.38013C18.9157 5.37969 18.8317 5.36877 18.7501 5.34763C16.9463 4.8819 15.0538 4.8819 13.2501 5.34763C13.1227 5.38028 12.9901 5.38748 12.8599 5.36883C12.7298 5.35017 12.6046 5.30603 12.4915 5.23891C12.3784 5.1718 12.2796 5.08305 12.2009 4.97772C12.1221 4.8724 12.065 4.75258 12.0326 4.62513ZM4.16883 13.7501C4.29539 13.7853 4.42764 13.7952 4.55802 13.7792C4.6884 13.7632 4.81435 13.7217 4.92869 13.6571C5.04303 13.5924 5.14351 13.5059 5.22439 13.4024C5.30527 13.2989 5.36497 13.1805 5.40008 13.0539C5.89831 11.2593 6.84462 9.62093 8.15008 8.29263C8.32099 8.10092 8.41159 7.8508 8.4031 7.5941C8.39461 7.33741 8.28768 7.09382 8.10447 6.91382C7.92126 6.73383 7.67582 6.63123 7.41902 6.62728C7.16221 6.62333 6.91373 6.71835 6.72508 6.89263C5.18281 8.4621 4.06451 10.3976 3.47508 12.5176C3.43969 12.6441 3.42957 12.7763 3.44528 12.9067C3.461 13.0371 3.50224 13.1631 3.56666 13.2776C3.63109 13.392 3.71742 13.4927 3.82074 13.5737C3.92406 13.6548 4.04234 13.7148 4.16883 13.7501ZM18.7501 26.6526C16.9463 27.1184 15.0538 27.1184 13.2501 26.6526C12.9949 26.5909 12.7256 26.632 12.5005 26.767C12.2753 26.9021 12.1123 27.1203 12.0467 27.3745C11.981 27.6288 12.018 27.8986 12.1496 28.1258C12.2812 28.353 12.4969 28.5193 12.7501 28.5889C14.8819 29.1387 17.1183 29.1387 19.2501 28.5889C19.5033 28.5193 19.719 28.353 19.8506 28.1258C19.9822 27.8986 20.0192 27.6288 19.9535 27.3745C19.8879 27.1203 19.7249 26.9021 19.4997 26.767C19.2745 26.632 19.0053 26.5909 18.7501 26.6526ZM26.6001 13.0564C26.671 13.312 26.8406 13.5289 27.0715 13.6595C27.3024 13.7901 27.5757 13.8236 27.8313 13.7526C28.0869 13.6817 28.3039 13.5121 28.4345 13.2812C28.565 13.0503 28.5985 12.777 28.5276 12.5214C27.9377 10.4015 26.8195 8.46612 25.2776 6.89638C25.1864 6.79904 25.0768 6.72091 24.955 6.6666C24.8332 6.61228 24.7018 6.58286 24.5685 6.58008C24.4352 6.5773 24.3026 6.60121 24.1787 6.6504C24.0548 6.6996 23.9419 6.77308 23.8468 6.86653C23.7517 6.95998 23.6762 7.07151 23.6248 7.19456C23.5734 7.31761 23.5472 7.44969 23.5476 7.58304C23.548 7.71638 23.5751 7.84829 23.6273 7.97101C23.6794 8.09373 23.7556 8.20478 23.8513 8.29763C25.1544 9.62637 26.0996 11.2635 26.5988 13.0564H26.6001ZM28.5301 19.4801C27.8685 21.8653 26.5377 24.0111 24.6951 25.6639C24.5811 25.7667 24.445 25.842 24.2973 25.8838C24.1495 25.9256 23.9941 25.9328 23.8432 25.9049C23.6922 25.8769 23.5497 25.8146 23.4267 25.7228C23.3037 25.6309 23.2035 25.512 23.1338 25.3751C22.4651 24.0576 21.4446 22.951 20.1854 22.178C18.9262 21.405 17.4776 20.9958 16.0001 20.9958C14.5226 20.9958 13.0739 21.405 11.8147 22.178C10.5556 22.951 9.53504 24.0576 8.86633 25.3751C8.79677 25.5118 8.69669 25.6307 8.57383 25.7226C8.45098 25.8144 8.30864 25.8768 8.15784 25.9048C8.00703 25.9328 7.8518 25.9258 7.70414 25.8842C7.55649 25.8427 7.42037 25.7677 7.30633 25.6651C5.46363 24.0114 4.13287 21.8648 3.47133 19.4789C3.40055 19.2233 3.43421 18.95 3.5649 18.7192C3.69559 18.4885 3.9126 18.319 4.1682 18.2483C4.42381 18.1775 4.69706 18.2111 4.92784 18.3418C5.15863 18.4725 5.32805 18.6895 5.39883 18.9451C5.84614 20.5612 6.6587 22.0529 7.77383 23.3051C8.88959 21.6868 10.4598 20.4354 12.2863 19.7089C11.3062 18.9374 10.591 17.8796 10.24 16.6827C9.88903 15.4857 9.91981 14.2092 10.3281 13.0306C10.7363 11.852 11.5017 10.8299 12.5178 10.1065C13.534 9.38309 14.7503 8.99436 15.9976 8.99436C17.2449 8.99436 18.4612 9.38309 19.4773 10.1065C20.4934 10.8299 21.2589 11.852 21.6671 13.0306C22.0753 14.2092 22.1061 15.4857 21.7552 16.6827C21.4042 17.8796 20.6889 18.9374 19.7088 19.7089C21.5353 20.4354 23.1056 21.6868 24.2213 23.3051C25.3365 22.0529 26.149 20.5612 26.5963 18.9451C26.6315 18.8186 26.6912 18.7002 26.7721 18.5967C26.8529 18.4932 26.9534 18.4067 27.0678 18.342C27.1821 18.2773 27.308 18.2358 27.4384 18.2199C27.5688 18.2039 27.701 18.2137 27.8276 18.2489C27.9541 18.284 28.0725 18.3437 28.176 18.4246C28.2795 18.5055 28.3661 18.606 28.4307 18.7203C28.4954 18.8346 28.5369 18.9606 28.5528 19.091C28.5688 19.2213 28.559 19.3536 28.5238 19.4801H28.5301ZM16.0001 19.0001C16.7912 19.0001 17.5646 18.7655 18.2224 18.326C18.8802 17.8865 19.3928 17.2618 19.6956 16.5309C19.9983 15.8 20.0776 14.9957 19.9232 14.2198C19.7689 13.4438 19.3879 12.7311 18.8285 12.1717C18.2691 11.6123 17.5564 11.2313 16.7804 11.077C16.0045 10.9226 15.2002 11.0019 14.4693 11.3046C13.7384 11.6074 13.1137 12.12 12.6742 12.7778C12.2347 13.4356 12.0001 14.209 12.0001 15.0001C12.0001 16.061 12.4215 17.0784 13.1717 17.8286C13.9218 18.5787 14.9392 19.0001 16.0001 19.0001Z" fill="#A3AED0"/>
</svg>
