<svg width="120" height="120" viewBox="0 0 120 120" fill="none" xmlns="http://www.w3.org/2000/svg">
<path d="M118.884 23.1788L108.967 3.33043C108.555 2.50603 107.921 1.81285 107.137 1.3286C106.354 0.844362 105.45 0.588208 104.529 0.588868H15.2734C14.3522 0.588208 13.449 0.844362 12.6651 1.3286C11.8812 1.81285 11.2477 2.50603 10.8354 3.33043L0.918119 23.1788C0.576324 23.8691 0.398158 24.629 0.397461 25.3994V109.755C0.397461 112.387 1.44232 114.911 3.30217 116.773C5.16202 118.634 7.68453 119.679 10.3148 119.679H109.488C112.118 119.679 114.64 118.634 116.5 116.773C118.36 114.911 119.405 112.387 119.405 109.755V25.3994C119.404 24.629 119.226 23.8691 118.884 23.1788ZM18.3354 10.5131H101.467L106.426 20.4373H13.3767L18.3354 10.5131ZM109.488 109.755H10.3148V30.3615H109.488V109.755ZM83.2441 61.5855C83.7048 62.0465 84.0703 62.5939 84.3196 63.1962C84.5689 63.7986 84.6973 64.4442 84.6973 65.0962C84.6973 65.7482 84.5689 66.3938 84.3196 66.9962C84.0703 67.5985 83.7048 68.1459 83.2441 68.6069C82.7834 69.0679 82.2365 69.4336 81.6345 69.6831C81.0326 69.9326 80.3874 70.0611 79.7359 70.0611C79.0843 70.0611 78.4392 69.9326 77.8372 69.6831C77.2353 69.4336 76.6883 69.0679 76.2276 68.6069L64.8599 57.2251V94.8688C64.8599 96.1849 64.3375 97.447 63.4076 98.3776C62.4776 99.3081 61.2164 99.8309 59.9013 99.8309C58.5861 99.8309 57.3249 99.3081 56.395 98.3776C55.465 97.447 54.9426 96.1849 54.9426 94.8688V57.2251L43.5749 68.6069C43.1142 69.0679 42.5673 69.4336 41.9653 69.6831C41.3634 69.9326 40.7182 70.0611 40.0667 70.0611C39.4151 70.0611 38.77 69.9326 38.168 69.6831C37.5661 69.4336 37.0191 69.0679 36.5584 68.6069C36.0977 68.1459 35.7322 67.5985 35.4829 66.9962C35.2336 66.3938 35.1053 65.7482 35.1053 65.0962C35.1053 64.4442 35.2336 63.7986 35.4829 63.1962C35.7322 62.5939 36.0977 62.0465 36.5584 61.5855L56.393 41.7371C56.8535 41.2757 57.4004 40.9097 58.0024 40.66C58.6044 40.4103 59.2496 40.2818 59.9013 40.2818C60.5529 40.2818 61.1982 40.4103 61.8001 40.66C62.4021 40.9097 62.949 41.2757 63.4095 41.7371L83.2441 61.5855Z" fill="#4318FF" fill-opacity="0.4"/>
</svg>
